<svg xmlns="http://www.w3.org/2000/svg" width="600" height="400" viewBox="0 0 600 400"><rect width="100%" height="100%" fill="#DDDDDD"/><path fill="#999999" d="M239.325 104.475h13.5v72.3h-13.5v-31.6h-33.95v31.6h-13.5v-72.3h13.5v31.1h33.95v-31.1Zm37.4 40.75h23.3q0-2.4-.67-4.53-.68-2.12-2.03-3.72-1.35-1.6-3.43-2.53-2.07-.92-4.82-.92-5.35 0-8.42 3.05-3.08 3.05-3.93 8.65Zm31.5 7.45h-31.75q.3 3.95 1.4 6.82 1.1 2.88 2.9 4.75 1.8 1.88 4.28 2.8 2.47.93 5.47.93 3 0 5.18-.7 2.17-.7 3.79-1.55 1.63-.85 2.86-1.55 1.22-.7 2.37-.7 1.55 0 2.3 1.15l3.55 4.5q-2.05 2.4-4.6 4.02-2.55 1.63-5.32 2.6-2.78.98-5.66 1.38-2.87.4-5.57.4-5.35 0-9.95-1.78-4.6-1.77-8-5.25-3.4-3.47-5.35-8.6-1.95-5.12-1.95-11.87 0-5.25 1.7-9.88 1.7-4.62 4.87-8.05 3.18-3.42 7.75-5.42 4.58-2 10.33-2 4.85 0 8.95 1.55t7.05 4.52q2.95 2.98 4.63 7.3 1.67 4.33 1.67 9.88 0 2.8-.6 3.77-.6.98-2.3.98Zm12.3-50.2h12.35v74.3h-12.35v-74.3Zm24.85 0h12.35v74.3h-12.35v-74.3Zm47.4 22.2q5.7 0 10.38 1.85 4.67 1.85 8 5.25 3.32 3.4 5.12 8.3 1.8 4.9 1.8 10.95 0 6.1-1.8 11t-5.12 8.35q-3.33 3.45-8 5.3-4.68 1.85-10.38 1.85-5.75 0-10.45-1.85-4.7-1.85-8.02-5.3-3.33-3.45-5.15-8.35-1.83-4.9-1.83-11 0-6.05 1.83-10.95 1.82-4.9 5.15-8.3 3.32-3.4 8.02-5.25 4.7-1.85 10.45-1.85Zm0 43.35q6.4 0 9.48-4.3 3.07-4.3 3.07-12.6t-3.07-12.65q-3.08-4.35-9.48-4.35-6.5 0-9.62 4.38-3.13 4.37-3.13 12.62t3.13 12.57q3.12 4.33 9.62 4.33Zm-137.18 56.45h10.55l-22.45 72.3h-12.15l-15.8-49.4q-.65-1.8-1.2-4.4-.3 1.25-.6 2.35t-.65 2.05l-15.95 49.4h-12.2l-22.4-72.3h11.25q1.75 0 2.93.82 1.17.83 1.57 2.23l12.3 43.25q.4 1.6.78 3.47.37 1.88.77 3.93.4-2.1.88-3.95.47-1.85 1.02-3.45l14.2-43.25q.4-1.15 1.58-2.1 1.17-.95 2.87-.95h3.95q1.75 0 2.85.85t1.65 2.2l14.15 43.25q1.05 3.1 1.9 7.15.65-3.95 1.45-7.15l12.3-43.25q.3-1.25 1.53-2.15 1.22-.9 2.92-.9Zm40.2 20.2q5.7 0 10.38 1.85 4.67 1.85 8 5.25 3.32 3.4 5.12 8.3 1.8 4.9 1.8 10.95 0 6.1-1.8 11t-5.12 8.35q-3.33 3.45-8 5.3-4.68 1.85-10.38 1.85-5.75 0-10.45-1.85-4.7-1.85-8.02-5.3-3.33-3.45-5.15-8.35-1.83-4.9-1.83-11 0-6.05 1.83-10.95 1.82-4.9 5.15-8.3 3.32-3.4 8.02-5.25 4.7-1.85 10.45-1.85Zm0 43.35q6.4 0 9.48-4.3 3.07-4.3 3.07-12.6t-3.07-12.65q-3.08-4.35-9.48-4.35-6.5 0-9.62 4.37-3.13 4.38-3.13 12.63t3.13 12.57q3.12 4.33 9.62 4.33Zm45.65-39.45.75 5.8q2.4-4.6 5.7-7.22 3.3-2.63 7.8-2.63 3.55 0 5.7 1.55l-.8 9.25q-.25.9-.72 1.27-.48.38-1.28.38-.75 0-2.22-.25-1.48-.25-2.88-.25-2.05 0-3.65.6t-2.87 1.73q-1.28 1.12-2.25 2.72-.98 1.6-1.83 3.65v31.6h-12.35v-51.3h7.25q1.9 0 2.65.68.75.67 1 2.42Zm26.56-26.1h12.34v74.3h-12.34v-74.3Zm56.9 59.1v-23q-2.11-2.55-4.58-3.6-2.48-1.05-5.32-1.05-2.81 0-5.06 1.05-2.25 1.05-3.85 3.18-1.59 2.12-2.45 5.4-.85 3.27-.85 7.72 0 4.5.73 7.63.73 3.12 2.07 5.09 1.35 1.98 3.3 2.86 1.95.87 4.36.87 3.84 0 6.54-1.6 2.71-1.6 5.11-4.55Zm0-59.1h12.35v74.3h-7.56q-2.44 0-3.1-2.25l-1.05-4.95q-3.1 3.55-7.12 5.75-4.03 2.2-9.38 2.2-4.2 0-7.7-1.75t-6.02-5.08q-2.53-3.32-3.9-8.22-1.38-4.9-1.38-11.2 0-5.7 1.55-10.6 1.55-4.9 4.45-8.5 2.9-3.6 6.96-5.62 4.04-2.03 9.09-2.03 4.3 0 7.35 1.35 3.06 1.35 5.46 3.65v-27.05Z"/></svg>